<svg width="820" height="520" viewBox="0 0 820 520" fill="none" xmlns="http://www.w3.org/2000/svg">
  <rect width="820" height="520" rx="24" fill="#ECF6F4"/>
  <rect x="42" y="64" width="234" height="390" rx="12" fill="white" stroke="#BBD6D2"/>
  <rect x="293" y="64" width="234" height="390" rx="12" fill="white" stroke="#BBD6D2"/>
  <rect x="544" y="64" width="234" height="390" rx="12" fill="white" stroke="#BBD6D2"/>
  <rect x="62" y="94" width="194" height="26" rx="8" fill="#0F766E"/>
  <rect x="313" y="94" width="194" height="26" rx="8" fill="#0A4C47"/>
  <rect x="564" y="94" width="194" height="26" rx="8" fill="#5E9F9A"/>
  <g fill="#CFDFDC">
    <rect x="62" y="144" width="194" height="14" rx="7"/>
    <rect x="62" y="170" width="160" height="14" rx="7"/>
    <rect x="62" y="196" width="132" height="14" rx="7"/>
    <rect x="62" y="222" width="180" height="14" rx="7"/>
  </g>
  <g fill="#CFDFDC">
    <rect x="313" y="144" width="194" height="14" rx="7"/>
    <rect x="313" y="170" width="170" height="14" rx="7"/>
    <rect x="313" y="196" width="120" height="14" rx="7"/>
    <rect x="313" y="222" width="182" height="14" rx="7"/>
  </g>
  <g fill="#CFDFDC">
    <rect x="564" y="144" width="194" height="14" rx="7"/>
    <rect x="564" y="170" width="176" height="14" rx="7"/>
    <rect x="564" y="196" width="148" height="14" rx="7"/>
    <rect x="564" y="222" width="165" height="14" rx="7"/>
  </g>
  <circle cx="410" cy="402" r="56" fill="#0F766E"/>
  <path d="M389 402L404 417L432 389" stroke="white" stroke-width="10" stroke-linecap="round" stroke-linejoin="round"/>
</svg>
